<svg xmlns="http://www.w3.org/2000/svg" viewBox="0 0 605.9 445.02"><defs><style>.cls-1{fill:#FFF;}</style></defs><g id="Layer_2" data-name="Layer 2"><g id="Layer_1-2" data-name="Layer 1"><path class="cls-1" d="M142.11,42.49c-.88,21.56-10,35.5-27.94,43.52Q89.33,97.1,64.44,108.11c-5.37,2.39-10.71,4.89-16.19,7-2.75,1.06-3.79,2.69-3.77,5.5.06,12.72,0,25.44.05,38.16,0,3.54-.38,4.14-3.86,3.67C22.89,160,10,151,3.32,134.06-1.94,120.66-.84,107.47,6.06,95c4.87-8.84,12.28-15.11,21.62-19.11C35.51,72.51,43.24,68.93,51,65.5c7.62-3.35,15.29-6.6,22.91-10s15-6.79,22.56-10.14c5.88-2.61,11.82-5.09,17.71-7.69,7.13-3.15,14.29-6.25,21.32-9.59,2.34-1.11,3.45-.57,4,1.69C140.55,34.65,141.5,39.52,142.11,42.49Zm-25,1.76c-2.65,0-6,3.61-6.06,6.42s3.25,6,6.36,5.92,6.12-3,6.08-5.87S119.82,44.24,117.14,44.25Z"/><path class="cls-1" d="M103.8,165.64c-.51,15.4-6.29,28.28-19.26,37.07-5.34,3.62-11.53,6-17.42,8.79-6.81,3.19-13.78,6-20.54,9.32-1.08.53-2,2.61-2,4-.13,13-.07,26,0,39,0,3.42-.51,3.94-4,3.49-16.66-2.12-29-10.54-36.31-25.7A43.19,43.19,0,0,1,.51,216.09c2-13.4,8.44-24.14,19.73-31.54,4.87-3.19,10.49-5.26,15.84-7.69,6.84-3.12,13.73-6.12,20.63-9.1,2.27-1,2.6-2.78,2.6-4.9q0-19.49-.06-39c0-3.19.32-3.66,3.35-3.3,17,2,29.46,10.52,36.84,26.08a46.79,46.79,0,0,1,3.37,9.44C103.52,159.17,103.49,162.41,103.8,165.64Z"/><path class="cls-1" d="M0,325.69c.54-14.81,7.59-28.87,23.66-37.35,7.83-4.13,16.16-7.31,24.24-11,3.14-1.41,6.22-3,9.34-4.41,1.94-.9,2-2.57,2-4.36q0-19.37,0-38.72c0-4,.18-4.29,4.2-3.67,14.81,2.24,26.63,9.21,34.23,22.4,11.78,20.42,6.16,46.64-13.14,59.72-5.19,3.52-11.19,5.9-16.94,8.56-7,3.24-14.15,6.12-21.1,9.44-1,.49-1.78,2.47-1.92,3.83a86.87,86.87,0,0,0-.13,9c0,10.27,0,20.54.15,30.81,0,2.48-1,3.3-3.27,3C28.11,371.41,17.12,365.86,9,355,3.09,347.2.37,338.37,0,325.69Z"/><path class="cls-1" d="M200.55,442.56c-13,0-26,0-39-.07-1,0-2-1.06-2.95-1.62.88-.69,1.65-1.73,2.64-2,2.32-.65,4.89-.6,7.1-1.48,2.87-1.15,3.77-3.34,2.76-6.24-2.51-7.19-5.23-14.31-7.86-21.46-1.15-3.15-2.35-6.28-3.38-9.47-.78-2.41-2.28-3.62-4.79-3.61l-25.9.09c-2,0-4-.08-6-.1-2.26,0-3.6.93-4.38,3.24-2.58,7.73-5.45,15.37-8.07,23.09a59.56,59.56,0,0,0-1.94,7.93,5.94,5.94,0,0,0,4.29,7c2.17.59,4.51.53,6.69,1.09,1,.25,1.82,1.27,2.72,1.94-1,.56-2,1.59-2.94,1.6-11.17.13-22.35.13-33.52.06-.76,0-1.52-.88-2.28-1.34.59-.78,1-2,1.79-2.25,2-.63,4.2-.51,6.08-1.28a14.55,14.55,0,0,0,8-8.16c4.8-11.75,9.43-23.58,14.12-35.37,2.65-6.65,5.35-13.28,7.91-20,4.06-10.57,8-21.19,12-31.77,2.4-6.26,4.93-12.48,7.44-18.71a9.38,9.38,0,0,1,1.4-2.33c1.55-1.88,3.12-1.59,4,.7q6.64,18,13.28,36c4.11,11.13,8.27,22.24,12.37,33.37,4,10.89,7.9,21.82,12,32.67,2,5.28,4.06,10.89,9.75,13.19,9,3.64,22.1,3.25,26.86-9.93,3.87-10.73,8.5-21.19,12.64-31.82,4.88-12.51,9.56-25.09,14.39-37.61q6.66-17.25,13.48-34.44a6.8,6.8,0,0,1,2.17-2.66c1.54-1.2,2.67-.58,3.31,1.18q8.13,22.24,16.25,44.49c5.83,16,11.57,32.07,17.47,48.07,1.81,4.93,4,9.73,6,14.57,2.48,5.84,6.72,9.35,13.23,9.77.27,0,.65-.06.8.08.74.7,1.42,1.47,2.13,2.21-.84.47-1.68,1.35-2.52,1.35-11.36,0-22.72-.09-34.07-.15-1.73,0-3.47.27-5.17.09-.75-.07-1.42-1-2.12-1.48.57-.69,1-1.8,1.75-2a29.88,29.88,0,0,1,4.86-.57c5.12-.57,7.09-3.55,5.37-8.32-3.64-10.07-7.36-20.09-11-30.16-.92-2.53-2.5-3.28-5.2-3.24-10.17.18-20.35.07-30.53.07-3.58,0-4.47.58-5.69,4.16-1.78,5.24-3.47,10.51-5.17,15.78-1.39,4.31-2.86,8.6-4.09,13-1.36,4.8.89,7.71,6.24,8.74,1.59.31,3.3,0,4.85.45.91.24,1.62,1.28,2.42,2-.84.6-1.68,1.71-2.53,1.71-13.17.11-26.34.08-39.51.08Zm-61.4-52.06c4.44,0,8.89.07,13.33,0,2.78-.07,3.69-1.45,2.78-3.86-.83-2.19-1.68-4.38-2.48-6.58q-4.29-11.87-8.55-23.74c-1.1-3.06-2.13-6.14-3.39-9.13-.33-.79-1.4-1.27-2.13-1.89a10.49,10.49,0,0,0-1.57,2.25c-2.7,7.57-5.29,15.17-8,22.76-1.87,5.29-3.86,10.53-5.68,15.84-1.13,3.31-.27,4.4,3.13,4.38C130.8,390.48,135,390.5,139.15,390.5Zm119.88,0v.05c4.18,0,8.36,0,12.54,0,3.74,0,4.52-1.24,3.24-4.73-2.51-6.82-4.93-13.66-7.38-20.49-2.19-6.07-4.34-12.14-6.6-18.18-.27-.74-1.1-1.26-1.67-1.89-.57.64-1.38,1.19-1.66,1.93-1.44,3.72-2.73,7.49-4.08,11.25-3.29,9.22-6.53,18.46-9.91,27.66-1.13,3.1-.55,4.33,2.7,4.39C250.48,390.56,254.76,390.5,259,390.5Z"/><path class="cls-1" d="M459.31,442.53c-7.26,0-14.53.05-21.79-.07-.81,0-1.6-1-2.4-1.53.74-.69,1.38-1.71,2.26-2a23.41,23.41,0,0,1,4.31-.54c6-.75,9-3.74,9.16-9.83.22-10.44.15-20.89.13-31.34,0-17.27-.1-34.53-.15-51.79a3.85,3.85,0,0,0,0-1.36,16.07,16.07,0,0,0-1.09-2c-.66.38-1.62.6-1.91,1.17-1.52,3-2.87,6-4.27,9.07q-8.64,18.75-17.25,37.53c-4.06,8.91-8,17.87-12,26.78-3.25,7.18-6.48,14.37-9.92,21.46a4.31,4.31,0,0,1-3.23,2.19,4.6,4.6,0,0,1-3.15-2.43c-5.62-12.58-11-25.25-16.57-37.85-4.79-10.87-9.73-21.67-14.51-32.55-2.69-6.13-5.18-12.36-7.76-18.54-.1-.25-.13-.58-.31-.75-1-1-2-1.9-3-2.84-.45,1.27-1.26,2.54-1.3,3.82-.36,13.9-.57,27.79-.9,41.69-.25,11-.61,22-.92,32.92,0,.27,0,.54,0,.82.38,8.9,3.5,13.11,13.75,14.1,1.57.15,4.14-.42,4,2.05-.15,2.66-2.63,1.69-4.35,1.69q-16.9,0-33.8,0a6.59,6.59,0,0,1-2.16.06,10.45,10.45,0,0,1-2.19-1.51c.64-.71,1.17-1.81,2-2.05,2.31-.73,4.82-.88,7.1-1.67,4.22-1.47,6.29-4.83,6.71-9.11,1.05-10.75,2.14-21.5,2.88-32.27,1-14.68,1.76-29.38,2.49-44.07a102.36,102.36,0,0,0-.1-13.34c-.67-8.28-4.4-11-12.94-12.27a21.29,21.29,0,0,1-3.24-.33c-.64-.21-1.6-1.13-1.51-1.54a3.8,3.8,0,0,1,1.59-1.85c.38-.26,1.06-.12,1.6-.12,8,0,16-.08,24,.14a5.19,5.19,0,0,1,3.84,2.26c4.11,8.27,7.94,16.69,11.87,25.06,3.31,7.06,6.65,14.11,9.95,21.17,3.53,7.56,7,15.14,10.53,22.7,3.22,6.89,6.42,13.8,9.76,20.64.45.93,1.61,1.53,2.45,2.28a15.37,15.37,0,0,0,1.85-2.46q8.39-17.84,16.69-35.73c4.07-8.8,8.06-17.64,12.12-26.45,2.66-5.76,5.42-11.47,8.09-17.23,1.26-2.71,2.43-5.45,3.59-8.2,1.59-3.8,2.25-4.11,6.3-4.08,7.63.06,15.26-.06,22.89-.1,1.27,0,2.76-.28,2.9,1.58s-1.36,2-2.77,2.17c-2.06.25-4.12.56-6.17.91-5.45.92-7.29,4.93-8,9.7a41.72,41.72,0,0,0-.32,7.07c.36,12.89.86,25.77,1.18,38.66.25,10.44.28,20.89.49,31.33.1,4.63.21,9.27.67,13.88.65,6.48,3.05,10.1,10.83,10.89A18.63,18.63,0,0,1,481,439a9.67,9.67,0,0,1,2.46,1.86c-.86.55-1.72,1.57-2.6,1.58-7.17.13-14.35.08-21.53.08Z"/><path class="cls-1" d="M562.06,445a70.43,70.43,0,0,1-23.42-2.85c-16.53-5-29.06-14.85-36.43-30.8a64.7,64.7,0,0,1-5.66-33.43c1.19-13.6,6-25.75,15.11-36a60.89,60.89,0,0,1,20.75-15.12c20.59-9.3,41.69-8.12,63-3.25,3,.68,4.25,2.23,4.48,5.43.45,6.52,1.44,13,2.2,19.49.17,1.44.59,3.11-1.38,3.59s-2.37-1.21-2.83-2.59c-2.24-6.71-5.09-13.2-10.95-17.47a34.6,34.6,0,0,0-11.31-5.64,52,52,0,0,0-32.4,2,41.35,41.35,0,0,0-21.66,19c-7.49,13.54-9.24,28-7.34,43.23,1.1,8.83,3.22,17.31,7.45,25.15,5.16,9.56,12.52,16.89,22.72,21a47.94,47.94,0,0,0,27,2.86c10.87-2,18.76-7.86,24.54-16.93,1.9-3,3.49-6.15,5.27-9.2a5.65,5.65,0,0,1,1.7-2.08,2.75,2.75,0,0,1,2.4-.2,2.62,2.62,0,0,1,.57,2.35c-2.55,8.2-5.11,16.41-8,24.52a5.45,5.45,0,0,1-3.5,2.78c-10,2.28-20.06,4.4-30.41,4.22Z"/><path class="cls-1" d="M76.3.43c-2.43,4.17-4.62,7.9-6.77,11.64Q61.73,25.63,54,39.2c-.37.64-.6,1.55-1.14,1.81s-2,.33-2.24,0c-3.68-6.14-7.22-12.37-10.8-18.57S32.53,9.86,29,3.55a16.39,16.39,0,0,1-1-2.91A14.19,14.19,0,0,1,30.75.06Q52,0,73.29,0A23.59,23.59,0,0,1,76.3.43Z"/></g></g></svg>